<?xml version="1.0" standalone="no"?>
<!DOCTYPE svg PUBLIC "-//W3C//DTD SVG 20010904//EN"
 "http://www.w3.org/TR/2001/REC-SVG-20010904/DTD/svg10.dtd">
<svg version="1.0" xmlns="http://www.w3.org/2000/svg"
 width="795.000000pt" height="678.000000pt" viewBox="0 0 795.000000 678.000000"
 preserveAspectRatio="xMidYMid meet">

<g transform="translate(0.000000,678.000000) scale(0.100000,-0.100000)"
fill="#000000" stroke="none">
<path d="M4530 6075 c-84 -20 -208 -80 -288 -140 -144 -109 -271 -339 -272
-492 l0 -31 -87 -7 c-621 -47 -1100 -298 -1465 -766 -283 -362 -498 -890 -592
-1449 -24 -140 -46 -332 -46 -393 l0 -29 53 6 c302 36 932 60 1214 47 413 -20
588 -65 636 -164 26 -52 54 -199 67 -347 23 -268 8 -1081 -30 -1545 -4 -60 -7
-112 -4 -114 2 -2 199 -18 438 -35 425 -30 435 -30 455 -12 27 24 27 58 0 82
-18 16 -66 22 -390 45 -203 14 -372 28 -374 31 -3 3 2 115 11 249 23 315 26
1205 6 1374 -25 208 -61 330 -114 391 -59 67 -211 118 -438 146 -212 26 -1053
15 -1349 -19 l-54 -6 7 74 c11 109 52 336 87 479 176 721 525 1265 1004 1567
60 38 221 119 274 138 l38 13 6 -221 c15 -481 65 -834 146 -1028 54 -128 100
-166 266 -214 246 -71 716 -125 1121 -128 196 -2 213 -1 233 17 24 22 28 68 7
85 -10 8 -86 13 -238 16 -477 8 -1009 77 -1185 155 -74 32 -115 120 -158 335
-45 228 -75 560 -75 852 l0 172 53 16 c75 21 267 52 377 60 l95 7 17 -81 c43
-210 195 -403 393 -500 114 -55 167 -66 320 -66 126 1 148 4 220 28 367 127
574 503 480 872 -36 141 -144 307 -256 391 -142 106 -252 145 -424 150 -81 2
-141 -2 -185 -11z m292 -116 c29 -6 91 -29 137 -51 203 -97 341 -316 341 -543
0 -271 -193 -519 -460 -590 -65 -17 -207 -19 -282 -4 -29 6 -91 29 -138 52
-164 80 -287 241 -326 427 -64 304 139 624 446 704 66 18 209 20 282 5z"/>
<path d="M5848 4922 c-185 -537 -335 -978 -333 -980 1 -2 86 -32 187 -67 l185
-64 78 197 c43 108 115 295 161 416 46 120 85 221 88 223 11 12 73 -23 113
-63 48 -49 68 -105 58 -168 -4 -22 -38 -163 -75 -312 -113 -445 -125 -627 -55
-796 7 -17 -47 -18 -1021 -20 l-1028 -3 -15 -26 c-13 -24 -13 -29 2 -53 l17
-26 1419 0 c1361 0 1419 1 1434 18 22 24 21 55 -1 75 -16 15 -55 17 -334 17
l-316 0 -28 37 c-37 49 -54 119 -54 223 0 121 21 233 101 548 82 323 88 384
46 476 -30 66 -99 134 -167 166 -28 13 -50 28 -50 34 0 6 25 85 56 176 113
336 250 809 237 820 -5 4 -84 33 -178 65 -93 32 -174 60 -180 62 -5 1 -161
-437 -347 -975z m563 770 c4 -4 -15 -83 -42 -177 -115 -394 -244 -770 -436
-1265 -52 -135 -99 -255 -104 -267 l-8 -22 -78 26 c-43 14 -79 27 -80 27 -2 2
560 1638 592 1723 3 9 24 5 77 -13 40 -13 75 -28 79 -32z"/>
<path d="M807 4812 c-10 -10 -17 -27 -17 -38 0 -15 527 -2243 546 -2306 5 -17
32 -18 375 -18 l369 0 0 -710 0 -710 -371 0 c-263 0 -384 -4 -413 -12 -55 -16
-138 -99 -154 -154 -41 -140 41 -284 179 -313 83 -18 153 2 217 63 77 72 97
172 56 279 -6 16 37 17 586 17 511 0 591 -2 587 -14 -42 -109 -25 -205 49
-280 147 -146 392 -55 411 152 7 72 -20 142 -75 195 -67 66 -77 67 -538 67
l-414 0 0 715 0 715 420 0 c407 0 421 1 440 20 25 25 26 62 1 84 -18 17 -68
17 -825 10 -443 -4 -806 -4 -806 1 0 7 -502 2117 -521 2187 -17 65 -67 89
-102 50z m641 -3927 c61 -51 66 -129 12 -184 -52 -51 -129 -50 -179 3 -28 30
-38 95 -21 137 28 68 131 92 188 44z m1602 9 c88 -53 74 -186 -24 -223 -33
-13 -44 -13 -79 0 -56 20 -82 58 -82 121 0 45 4 53 37 84 30 27 46 34 79 34
22 0 53 -7 69 -16z"/>
</g>
</svg>
